<svg width="32" height="29" viewBox="0 0 32 29" fill="none" xmlns="http://www.w3.org/2000/svg">
<g clip-path="url(#clip0_3_775)">
<path d="M15.079 0.0143296C6.96965 0.379001 0.570196 6.75736 0.594797 14.4249C0.602288 16.7602 1.19924 18.9645 2.25231 20.9121L0.63548 28.3244C0.548019 28.7253 0.930911 29.0764 1.35265 28.9821L9.04302 27.2613C11.0188 28.1908 13.238 28.7277 15.5867 28.7615C23.8753 28.8811 30.7865 22.6654 31.0448 14.8402C31.3218 6.45212 23.9916 -0.386546 15.079 0.0143296ZM24.2553 22.3437C22.0031 24.4708 19.0086 25.6422 15.8236 25.6422C13.9586 25.6422 12.1731 25.247 10.5165 24.4677L9.44552 23.9638L4.73053 25.0188L5.72301 20.4686L5.19537 19.4928C4.33537 17.9021 3.89931 16.182 3.89931 14.3804C3.89931 11.3722 5.13964 8.54417 7.39182 6.41703C9.62389 4.30897 12.6672 3.11848 15.8238 3.11848C19.0089 3.11855 22.0032 4.28996 24.2554 6.41696C26.5076 8.54403 27.7479 11.3721 27.748 14.3802C27.7479 17.3615 26.4874 20.2357 24.2553 22.3437Z" fill="#7AD06D"/>
<path d="M23.2143 17.4995L20.2645 16.6995C19.8767 16.5944 19.459 16.6983 19.1765 16.9702L18.4551 17.6643C18.1509 17.957 17.6894 18.0511 17.2868 17.8972C15.8914 17.3639 12.956 14.899 12.2064 13.6661C11.9901 13.3104 12.0259 12.8658 12.2915 12.5413L12.9212 11.7718C13.168 11.4703 13.22 11.0654 13.0569 10.7169L11.8158 8.06588C11.5185 7.43093 10.6594 7.24609 10.0982 7.69441C9.27488 8.35204 8.29804 9.35138 8.17929 10.4585C7.96993 12.4104 8.85629 14.871 12.2081 17.8256C16.0803 21.2389 19.1812 21.6899 21.2002 21.228C22.3453 20.966 23.2605 19.9158 23.8381 19.056C24.2318 18.4697 23.9209 17.6911 23.2143 17.4995Z" fill="#7AD06D"/>
</g>
<defs>
<clipPath id="clip0_3_775">
<rect width="30.7059" height="29" fill="white" transform="translate(0.470703 -0.00268555)"/>
</clipPath>
</defs>
</svg>
