<svg width="32" height="29" viewBox="0 0 32 29" fill="none" xmlns="http://www.w3.org/2000/svg">
<g clip-path="url(#clip0_3_779)">
<path d="M22.3819 -0.00268555H9.97093C4.92701 -0.00268555 0.823486 3.87287 0.823486 8.63657V20.3581C0.823486 25.1218 4.92701 28.9973 9.97093 28.9973H22.3819C27.4258 28.9973 31.5294 25.1218 31.5294 20.3581V8.63657C31.5293 3.87287 27.4258 -0.00268555 22.3819 -0.00268555ZM28.4404 20.3581C28.4404 23.5181 25.7279 26.0799 22.3819 26.0799H9.97093C6.62498 26.0799 3.9125 23.5181 3.9125 20.3581V8.63657C3.9125 5.47645 6.62498 2.91471 9.97093 2.91471H22.3819C25.7279 2.91471 28.4404 5.47645 28.4404 8.63657V20.3581Z" fill="url(#paint0_linear_3_779)"/>
<path d="M16.1765 6.99707C11.7975 6.99707 8.23486 10.3618 8.23486 14.4975C8.23486 18.6331 11.7975 21.9979 16.1765 21.9979C20.5555 21.9979 24.1181 18.6332 24.1181 14.4975C24.1181 10.3617 20.5555 6.99707 16.1765 6.99707ZM16.1765 19.0805C13.4964 19.0805 11.3239 17.0287 11.3239 14.4975C11.3239 11.9663 13.4965 9.91447 16.1765 9.91447C18.8565 9.91447 21.0291 11.9663 21.0291 14.4975C21.0291 17.0286 18.8565 19.0805 16.1765 19.0805Z" fill="url(#paint1_linear_3_779)"/>
<path d="M24.1334 8.85062C25.1844 8.85062 26.0364 8.04596 26.0364 7.05336C26.0364 6.06076 25.1844 5.2561 24.1334 5.2561C23.0825 5.2561 22.2305 6.06076 22.2305 7.05336C22.2305 8.04596 23.0825 8.85062 24.1334 8.85062Z" fill="url(#paint2_linear_3_779)"/>
</g>
<defs>
<linearGradient id="paint0_linear_3_779" x1="16.1764" y1="28.9129" x2="16.1764" y2="0.222562" gradientUnits="userSpaceOnUse">
<stop stop-color="#E09B3D"/>
<stop offset="0.3" stop-color="#C74C4D"/>
<stop offset="0.6" stop-color="#C21975"/>
<stop offset="1" stop-color="#7024C4"/>
</linearGradient>
<linearGradient id="paint1_linear_3_779" x1="16.1765" y1="28.9131" x2="16.1765" y2="0.222751" gradientUnits="userSpaceOnUse">
<stop stop-color="#E09B3D"/>
<stop offset="0.3" stop-color="#C74C4D"/>
<stop offset="0.6" stop-color="#C21975"/>
<stop offset="1" stop-color="#7024C4"/>
</linearGradient>
<linearGradient id="paint2_linear_3_779" x1="24.1334" y1="28.9131" x2="24.1334" y2="0.22273" gradientUnits="userSpaceOnUse">
<stop stop-color="#E09B3D"/>
<stop offset="0.3" stop-color="#C74C4D"/>
<stop offset="0.6" stop-color="#C21975"/>
<stop offset="1" stop-color="#7024C4"/>
</linearGradient>
<clipPath id="clip0_3_779">
<rect width="30.7059" height="29" fill="white" transform="translate(0.823486 -0.00268555)"/>
</clipPath>
</defs>
</svg>
