<svg width="31" height="29" viewBox="0 0 31 29" fill="none" xmlns="http://www.w3.org/2000/svg">
<g clip-path="url(#clip0_3_773)">
<path d="M26.7454 -0.00268555H4.31517C2.03004 -0.00268555 0.17749 1.74687 0.17749 3.90512V25.0894C0.17749 27.2476 2.02996 28.9972 4.31517 28.9972H15.3776L15.3965 18.6342H12.5458C12.1754 18.6342 11.8747 18.3513 11.8733 18.0014L11.8596 14.661C11.8582 14.3092 12.1597 14.0233 12.5322 14.0233H15.3777V10.7956C15.3777 7.04988 17.7999 5.01032 21.3379 5.01032H24.2411C24.6125 5.01032 24.9137 5.29472 24.9137 5.6456V8.46226C24.9137 8.81299 24.6127 9.09733 24.2415 9.09754L22.4598 9.09832C20.5358 9.09832 20.1632 9.96182 20.1632 11.229V14.0234H24.391C24.7938 14.0234 25.1064 14.3556 25.0589 14.7334L24.6397 18.0738C24.5996 18.3935 24.3126 18.6343 23.9718 18.6343H20.182L20.1632 28.9973H26.7455C29.0307 28.9973 30.8831 27.2478 30.8831 25.0896V3.90512C30.8831 1.74687 29.0306 -0.00268555 26.7454 -0.00268555Z" fill="#475993"/>
</g>
<defs>
<clipPath id="clip0_3_773">
<rect width="30.7059" height="29" fill="white" transform="translate(0.176514 -0.00268555)"/>
</clipPath>
</defs>
</svg>
