<svg width="37" height="52" viewBox="0 0 37 52" fill="none" xmlns="http://www.w3.org/2000/svg">
<path fill-rule="evenodd" clip-rule="evenodd" d="M34.827 11.9465C36.4732 13.2714 36.989 15.5296 36.0804 17.4377C35.724 18.1863 35.724 19.0455 36.0804 19.7944C36.9885 21.7025 36.4732 23.9604 34.827 25.285C34.181 25.8053 33.8082 26.5791 33.8046 27.4083C33.7953 29.5219 32.3508 31.3325 30.2926 31.8117C29.5413 31.9869 28.9183 32.4713 28.5415 33.1374V50.1627C28.5415 50.506 28.3463 50.8196 28.0379 50.9709C27.9119 51.0327 27.7765 51.0632 27.641 51.0632C27.4458 51.0632 27.2512 50.9996 27.0906 50.8753L18.2626 44.0572L9.43456 50.8753C9.16313 51.0861 8.79557 51.1221 8.48721 50.9709C8.17886 50.8196 7.98364 50.506 7.98364 50.1627V33.1374C7.60684 32.4713 6.98376 31.9869 6.23199 31.8117C4.17433 31.3325 2.72987 29.5219 2.72049 27.4086C2.71697 26.5791 2.34413 25.8053 1.6981 25.285C0.0519748 23.9604 -0.463906 21.7025 0.444748 19.7944C0.801174 19.0457 0.801174 18.1863 0.444748 17.4374C-0.463906 15.5296 0.0519748 13.2714 1.6981 11.9468C2.34413 11.4268 2.71697 10.653 2.72049 9.82379C2.72987 7.71015 4.17433 5.89958 6.23258 5.42034C7.03981 5.23216 7.71163 4.69664 8.07451 3.95096C9.00016 2.05099 11.0883 1.0462 13.1489 1.50727C13.9602 1.68929 14.7968 1.4973 15.4469 0.982885C17.1048 -0.327335 19.4204 -0.327921 21.0782 0.982885C21.7289 1.49701 22.5678 1.68753 23.3762 1.50727C25.4362 1.04444 27.5256 2.05041 28.4506 3.95096C28.8135 4.69664 29.4853 5.23216 30.2931 5.42034C32.3508 5.89958 33.7953 7.71015 33.8046 9.8235C33.8082 10.653 34.181 11.4268 34.827 11.9465ZM9.78454 48.3296L17.7121 42.2067C18.0369 41.9564 18.4883 41.9564 18.813 42.2067L26.7406 48.3296V35.1672C25.7622 35.7676 24.5656 35.9918 23.3762 35.7248C22.5667 35.544 21.7295 35.7351 21.0788 36.2492C20.2493 36.9043 19.2562 37.232 18.2626 37.232C17.2689 37.232 16.2758 36.9046 15.4469 36.2492C14.7956 35.7345 13.9585 35.5431 13.1489 35.7248C11.9593 35.9896 10.7628 35.7657 9.78454 35.1661V48.3296ZM33.698 23.8821C34.6916 23.0825 35.0023 21.7201 34.4542 20.5688C33.8639 19.3277 33.8639 17.9044 34.4542 16.6636C35.0023 15.512 34.6916 14.1493 33.698 13.3497C32.6269 12.4882 32.0096 11.2058 32.0038 9.83141C31.9979 8.55607 31.1268 7.46334 29.8845 7.17433C28.5456 6.86246 27.4329 5.97491 26.8315 4.73944C26.2728 3.59277 25.0142 2.98632 23.769 3.26478C22.4289 3.56463 21.0401 3.24807 19.962 2.39569C18.9608 1.60487 17.5644 1.60487 16.5631 2.39569C15.4856 3.24807 14.0957 3.56493 12.7561 3.26478C11.511 2.98603 10.2518 3.59277 9.69367 4.73944C9.0922 5.97491 7.97954 6.86246 6.64118 7.17433C5.39838 7.46334 4.52724 8.55607 4.52138 9.83171C4.51552 11.2058 3.89822 12.4882 2.82718 13.35C1.83352 14.1493 1.52282 15.512 2.07094 16.6633C2.66128 17.9044 2.66128 19.3277 2.07094 20.5682C1.52282 21.7198 1.83352 23.0825 2.82718 23.8821C3.89822 24.7439 4.51552 26.0263 4.52138 27.4007C4.52724 28.676 5.39838 29.7687 6.64059 30.0578C7.97954 30.3696 9.0922 31.2572 9.69367 32.4927C10.2518 33.639 11.5116 34.2449 12.7561 33.9673C13.0879 33.8932 13.4221 33.8565 13.7539 33.8565C14.7645 33.8565 15.7518 34.1948 16.5637 34.8364C17.5644 35.6275 18.9614 35.6269 19.962 34.8364C21.0401 33.984 22.4271 33.6672 23.769 33.9673C25.0142 34.2443 26.2728 33.639 26.8315 32.4927C27.4329 31.2572 28.5456 30.3696 29.884 30.0578C31.1268 29.7687 31.9979 28.676 32.0038 27.4004C32.0096 26.0263 32.6269 24.7439 33.698 23.8821ZM8.23218 18.6154C8.23218 13.0846 12.7321 8.58502 18.2625 8.58502C23.793 8.58502 28.2929 13.0846 28.2929 18.6154C28.2929 24.1462 23.793 28.6458 18.2625 28.6458C12.7321 28.6458 8.23218 24.1462 8.23218 18.6154ZM10.0331 18.6154C10.0331 23.1531 13.7245 26.8449 18.2625 26.8449C22.8005 26.8449 26.492 23.1531 26.492 18.6154C26.492 14.0777 22.8005 10.3859 18.2625 10.3859C13.7245 10.3859 10.0331 14.0777 10.0331 18.6154Z" fill="#FCBF02"/>
</svg>
