<svg width="36" height="36" viewBox="0 0 36 36" fill="none" xmlns="http://www.w3.org/2000/svg">
<path fill-rule="evenodd" clip-rule="evenodd" d="M26.2551 0H9.74487C4.37146 0 0 4.37146 0 9.74487V26.2554C0 31.6285 4.37146 36 9.74487 36H26.2554C31.6285 36 36 31.6285 36 26.2554V9.74487C36 4.37146 31.6285 0 26.2551 0ZM33.8895 26.2554C33.8895 30.4648 30.4648 33.8895 26.2551 33.8895H9.74487C5.53519 33.8895 2.11047 30.4648 2.11047 26.2554V9.74487C2.11047 5.53519 5.53519 2.11047 9.74487 2.11047H26.2554C30.4648 2.11047 33.8895 5.53519 33.8895 9.74487V26.2554ZM18 8.15652C12.5722 8.15652 8.15653 12.5722 8.15653 18C8.15653 23.4278 12.5722 27.8435 18 27.8435C23.4278 27.8435 27.8435 23.4278 27.8435 18C27.8435 12.5722 23.4278 8.15652 18 8.15652ZM18 25.733C13.7362 25.733 10.267 22.2641 10.267 18C10.267 13.7362 13.7362 10.267 18 10.267C22.2641 10.267 25.733 13.7362 25.733 18C25.733 22.2641 22.2641 25.733 18 25.733ZM25.1702 7.5693C25.1702 5.96557 26.4749 4.66067 28.0789 4.66067C29.6829 4.66067 30.9878 5.96529 30.9878 7.5693C30.9878 9.1733 29.6829 10.4782 28.0789 10.4782C26.4749 10.4782 25.1702 9.1733 25.1702 7.5693ZM27.2807 7.5693C27.2807 8.0093 27.6389 8.36746 28.0789 8.36746C28.5191 8.36746 28.8773 8.0093 28.8773 7.5693C28.8773 7.12902 28.5191 6.77114 28.0789 6.77114C27.6389 6.77114 27.2807 7.12902 27.2807 7.5693Z" fill="#FCBF02"/>
</svg>
