<svg width="56" height="44" viewBox="0 0 56 44" fill="none" xmlns="http://www.w3.org/2000/svg">
<path d="M20.4628 28.8333C13.6333 28.8333 0 32.053 0 38.4444V43.2499H40.9256V38.4444C40.9256 32.053 27.2922 28.8333 20.4628 28.8333Z" fill="#FFCC00" fill-opacity="0.6"/>
<path d="M53.9706 9.22667C53.9962 8.96236 54.0217 8.69806 54.0217 8.40972C54.0217 8.12139 53.9962 7.85708 53.945 7.59278L55.8378 6.19917C56.0169 6.07903 56.0424 5.83875 55.9401 5.67056L54.1496 2.76319C54.0473 2.57097 53.7915 2.52292 53.6125 2.57097L51.4127 3.41194C50.9523 3.07556 50.4408 2.81125 49.9036 2.595L49.5711 0.360417C49.5199 0.144167 49.3409 0 49.1107 0H45.5297C45.2995 0 45.1204 0.144167 45.0948 0.360417L44.7623 2.595C44.2252 2.81125 43.7136 3.09958 43.2532 3.41194L41.0279 2.57097C40.8232 2.49889 40.593 2.57097 40.4907 2.76319L38.7002 5.67056C38.5979 5.86278 38.6235 6.07903 38.8025 6.19917L40.6953 7.59278C40.6442 7.85708 40.6186 8.14542 40.6186 8.40972C40.6186 8.67403 40.6442 8.96236 40.6953 9.22667L38.8025 10.6203C38.6235 10.7404 38.5979 10.9807 38.7002 11.1489L40.4907 14.0563C40.593 14.2485 40.8488 14.2965 41.0279 14.2485L43.2532 13.4075C43.7136 13.7439 44.2252 14.0082 44.7623 14.2244L45.0948 16.459C45.1204 16.6753 45.2995 16.8194 45.5297 16.8194H49.1107C49.3409 16.8194 49.5199 16.6753 49.5455 16.459L49.878 14.2244C50.4152 14.0082 50.9267 13.7199 51.3872 13.4075L53.6125 14.2485C53.8171 14.3206 54.0473 14.2485 54.1496 14.0563L55.9401 11.1489C56.0424 10.9567 56.0169 10.7404 55.8378 10.6203L53.9706 9.22667ZM47.3202 11.4132C45.5553 11.4132 44.1229 10.0676 44.1229 8.40972C44.1229 6.75181 45.5553 5.40625 47.3202 5.40625C49.0851 5.40625 50.5175 6.75181 50.5175 8.40972C50.5175 10.0676 49.0851 11.4132 47.3202 11.4132Z" fill="#FFCC00" fill-opacity="0.6"/>
<path d="M48.3945 20.8561L47.1155 18.7657C47.0388 18.6215 46.8597 18.5735 46.7319 18.6215L45.146 19.2222C44.8135 18.982 44.4554 18.7897 44.0717 18.6456L43.8415 17.0597C43.7903 16.9156 43.6369 16.8195 43.4834 16.8195H40.9255C40.7721 16.8195 40.6442 16.9156 40.6186 17.0838L40.3884 18.6696C40.0047 18.8138 39.6466 19.03 39.3141 19.2463L37.7282 18.6456C37.5748 18.5975 37.4213 18.6456 37.3445 18.7897L36.0656 20.8802C35.9889 21.0243 36.0145 21.1685 36.1424 21.2646L37.498 22.2497C37.4724 22.442 37.4469 22.6342 37.4469 22.8264C37.4469 23.0186 37.4724 23.2349 37.498 23.4031L36.1424 24.3882C36.0145 24.4843 35.9889 24.6525 36.0656 24.7727L37.3445 26.8631C37.4213 27.0072 37.6003 27.0553 37.7282 27.0072L39.3141 26.4065C39.6466 26.6468 40.0047 26.839 40.3884 26.9832L40.6186 28.569C40.6442 28.7372 40.7721 28.8333 40.9255 28.8333H43.4834C43.6369 28.8333 43.7903 28.7372 43.7903 28.569L44.0205 26.9832C44.4042 26.839 44.7623 26.6228 45.0948 26.4065L46.6807 27.0072C46.8342 27.0553 46.9876 27.0072 47.0644 26.8631L48.3433 24.7727C48.42 24.6285 48.3945 24.4843 48.2666 24.3882L46.9365 23.4031C46.9621 23.2108 46.9876 23.0186 46.9876 22.8264C46.9876 22.6342 46.9621 22.4179 46.9365 22.2497L48.2921 21.2646C48.42 21.1685 48.4456 21.0003 48.3945 20.8561ZM42.2045 24.8207C41.0279 24.8207 40.0814 23.9077 40.0814 22.8264C40.0814 21.7211 41.0534 20.8321 42.2045 20.8321C43.3555 20.8321 44.3275 21.7452 44.3275 22.8264C44.3275 23.9317 43.3811 24.8207 42.2045 24.8207Z" fill="#FFCC00" fill-opacity="0.6"/>
<path d="M9.56633 14.4167H31.3848C32.0754 14.4167 32.6381 13.8881 32.6381 13.2394V13.1913C32.6381 12.5426 32.0754 12.0139 31.3848 12.0139H30.6942C30.6942 8.45783 28.6223 5.4063 25.5785 3.72436V6.007C25.5785 6.67978 25.0157 7.20839 24.2995 7.20839C23.5833 7.20839 23.0206 6.67978 23.0206 6.007V2.73922C22.2021 2.547 21.358 2.40283 20.4628 2.40283C19.5675 2.40283 18.7234 2.547 17.9049 2.73922V6.007C17.9049 6.67978 17.3422 7.20839 16.626 7.20839C15.9098 7.20839 15.3471 6.67978 15.3471 6.007V3.72436C12.3032 5.4063 10.2314 8.45783 10.2314 12.0139H9.56633C8.87571 12.0139 8.31299 12.5426 8.31299 13.1913V13.2634C8.31299 13.8881 8.87571 14.4167 9.56633 14.4167Z" fill="#FFCC00" fill-opacity="0.6"/>
<path d="M20.4629 24.0278C25.2205 24.0278 29.1852 20.9522 30.3362 16.8195H10.5896C11.7406 20.9522 15.7053 24.0278 20.4629 24.0278Z" fill="#FFCC00" fill-opacity="0.6"/>
</svg>
